<mxfile host="app.diagrams.net" agent="Mozilla/5.0 (Windows NT 10.0; Win64; x64) AppleWebKit/537.36 (KHTML, like Gecko) Chrome/136.0.0.0 Safari/537.36" version="27.0.2">
  <diagram name="Página-1" id="ehG6k6q8JX9qS2TRNrvb">
    <mxGraphModel dx="1188" dy="648" grid="1" gridSize="10" guides="1" tooltips="1" connect="1" arrows="1" fold="1" page="1" pageScale="1" pageWidth="827" pageHeight="1169" math="0" shadow="0">
      <root>
        <mxCell id="0" />
        <mxCell id="1" parent="0" />
        <mxCell id="YxszKIj0DLGemp8bcztV-2" value="Pagamento" style="rounded=0;whiteSpace=wrap;html=1;" parent="1" vertex="1">
          <mxGeometry x="520" y="139.89" width="120" height="60" as="geometry" />
        </mxCell>
        <mxCell id="YxszKIj0DLGemp8bcztV-4" value="Usuário" style="shape=umlActor;verticalLabelPosition=bottom;verticalAlign=top;html=1;outlineConnect=0;" parent="1" vertex="1">
          <mxGeometry x="100" y="110" width="40" height="70" as="geometry" />
        </mxCell>
        <mxCell id="YxszKIj0DLGemp8bcztV-6" value="" style="endArrow=none;dashed=1;html=1;dashPattern=1 3;strokeWidth=2;rounded=0;entryX=0.5;entryY=1;entryDx=0;entryDy=0;" parent="1" source="YxszKIj0DLGemp8bcztV-14" edge="1">
          <mxGeometry width="50" height="50" relative="1" as="geometry">
            <mxPoint x="119.66" y="520" as="sourcePoint" />
            <mxPoint x="119.66" y="200" as="targetPoint" />
          </mxGeometry>
        </mxCell>
        <mxCell id="YxszKIj0DLGemp8bcztV-7" value="" style="endArrow=none;dashed=1;html=1;dashPattern=1 3;strokeWidth=2;rounded=0;entryX=0.5;entryY=1;entryDx=0;entryDy=0;" parent="1" edge="1">
          <mxGeometry width="50" height="50" relative="1" as="geometry">
            <mxPoint x="579.9809923443213" y="558.75" as="sourcePoint" />
            <mxPoint x="579.6600000000001" y="199.89" as="targetPoint" />
          </mxGeometry>
        </mxCell>
        <mxCell id="YxszKIj0DLGemp8bcztV-15" value="" style="endArrow=none;dashed=1;html=1;dashPattern=1 3;strokeWidth=2;rounded=0;entryX=1;entryY=0.5;entryDx=0;entryDy=0;" parent="1" source="qWU6R_GNiuNSAZ3JDCt7-11" target="YxszKIj0DLGemp8bcztV-14" edge="1">
          <mxGeometry width="50" height="50" relative="1" as="geometry">
            <mxPoint x="120" y="720" as="sourcePoint" />
            <mxPoint x="119.66" y="200" as="targetPoint" />
          </mxGeometry>
        </mxCell>
        <mxCell id="qWU6R_GNiuNSAZ3JDCt7-32" style="edgeStyle=orthogonalEdgeStyle;rounded=0;orthogonalLoop=1;jettySize=auto;html=1;exitX=0;exitY=0;exitDx=0;exitDy=0;entryX=0;entryY=1;entryDx=0;entryDy=0;" edge="1" parent="1" source="YxszKIj0DLGemp8bcztV-14" target="qWU6R_GNiuNSAZ3JDCt7-9">
          <mxGeometry relative="1" as="geometry">
            <mxPoint x="260" y="260" as="targetPoint" />
            <Array as="points">
              <mxPoint x="140" y="239" />
              <mxPoint x="310" y="239" />
            </Array>
          </mxGeometry>
        </mxCell>
        <mxCell id="YxszKIj0DLGemp8bcztV-14" value="" style="rounded=0;whiteSpace=wrap;html=1;rotation=90;" parent="1" vertex="1">
          <mxGeometry x="98.75" y="250" width="42.5" height="20" as="geometry" />
        </mxCell>
        <mxCell id="YxszKIj0DLGemp8bcztV-17" value="1: Solicitar_Pagamento()" style="text;html=1;align=center;verticalAlign=middle;whiteSpace=wrap;rounded=0;" parent="1" vertex="1">
          <mxGeometry x="155" y="215" width="140" height="30" as="geometry" />
        </mxCell>
        <mxCell id="YxszKIj0DLGemp8bcztV-24" value="" style="ellipse;whiteSpace=wrap;html=1;aspect=fixed;" parent="1" vertex="1">
          <mxGeometry x="320" y="139.89" width="40" height="40" as="geometry" />
        </mxCell>
        <mxCell id="YxszKIj0DLGemp8bcztV-25" value="" style="endArrow=none;html=1;rounded=0;" parent="1" edge="1">
          <mxGeometry width="50" height="50" relative="1" as="geometry">
            <mxPoint x="310" y="179.89" as="sourcePoint" />
            <mxPoint x="370" y="179.89" as="targetPoint" />
          </mxGeometry>
        </mxCell>
        <mxCell id="YxszKIj0DLGemp8bcztV-26" value="Sistema" style="text;html=1;align=center;verticalAlign=middle;resizable=0;points=[];autosize=1;strokeColor=none;fillColor=none;" parent="1" vertex="1">
          <mxGeometry x="305" y="180" width="70" height="30" as="geometry" />
        </mxCell>
        <mxCell id="YxszKIj0DLGemp8bcztV-27" value="" style="endArrow=none;dashed=1;html=1;dashPattern=1 3;strokeWidth=2;rounded=0;entryX=0.5;entryY=1;entryDx=0;entryDy=0;" parent="1" source="qWU6R_GNiuNSAZ3JDCt7-9" edge="1">
          <mxGeometry width="50" height="50" relative="1" as="geometry">
            <mxPoint x="340" y="720" as="sourcePoint" />
            <mxPoint x="340.00000000000006" y="200" as="targetPoint" />
          </mxGeometry>
        </mxCell>
        <mxCell id="qWU6R_GNiuNSAZ3JDCt7-3" value="" style="endArrow=none;dashed=1;html=1;dashPattern=1 3;strokeWidth=2;rounded=0;entryX=1;entryY=0.5;entryDx=0;entryDy=0;" edge="1" parent="1" source="qWU6R_GNiuNSAZ3JDCt7-15" target="qWU6R_GNiuNSAZ3JDCt7-2">
          <mxGeometry width="50" height="50" relative="1" as="geometry">
            <mxPoint x="340" y="720" as="sourcePoint" />
            <mxPoint x="340.00000000000006" y="200" as="targetPoint" />
          </mxGeometry>
        </mxCell>
        <mxCell id="qWU6R_GNiuNSAZ3JDCt7-2" value="" style="rounded=0;whiteSpace=wrap;html=1;rotation=90;" vertex="1" parent="1">
          <mxGeometry x="318.75" y="330" width="42.5" height="20" as="geometry" />
        </mxCell>
        <mxCell id="qWU6R_GNiuNSAZ3JDCt7-4" value="" style="endArrow=classic;html=1;rounded=0;exitX=0.25;exitY=0;exitDx=0;exitDy=0;entryX=0.75;entryY=0;entryDx=0;entryDy=0;strokeWidth=1;jumpStyle=none;edgeStyle=elbowEdgeStyle;elbow=vertical;" edge="1" parent="1" source="qWU6R_GNiuNSAZ3JDCt7-2" target="qWU6R_GNiuNSAZ3JDCt7-2">
          <mxGeometry width="50" height="50" relative="1" as="geometry">
            <mxPoint x="318.75" y="370" as="sourcePoint" />
            <mxPoint x="518.75" y="370" as="targetPoint" />
            <Array as="points">
              <mxPoint x="380" y="340" />
              <mxPoint x="380" y="340" />
            </Array>
          </mxGeometry>
        </mxCell>
        <mxCell id="qWU6R_GNiuNSAZ3JDCt7-6" value="2: Verificar_Carrinho()" style="text;html=1;align=center;verticalAlign=middle;resizable=0;points=[];autosize=1;strokeColor=none;fillColor=none;" vertex="1" parent="1">
          <mxGeometry x="380" y="325" width="140" height="30" as="geometry" />
        </mxCell>
        <mxCell id="qWU6R_GNiuNSAZ3JDCt7-33" style="edgeStyle=orthogonalEdgeStyle;rounded=0;orthogonalLoop=1;jettySize=auto;html=1;exitX=0;exitY=1;exitDx=0;exitDy=0;entryX=0;entryY=0;entryDx=0;entryDy=0;dashed=1;" edge="1" parent="1" source="qWU6R_GNiuNSAZ3JDCt7-7" target="qWU6R_GNiuNSAZ3JDCt7-11">
          <mxGeometry relative="1" as="geometry">
            <Array as="points">
              <mxPoint x="240" y="399" />
              <mxPoint x="240" y="399" />
            </Array>
          </mxGeometry>
        </mxCell>
        <mxCell id="qWU6R_GNiuNSAZ3JDCt7-7" value="" style="rounded=0;whiteSpace=wrap;html=1;rotation=90;" vertex="1" parent="1">
          <mxGeometry x="318.75" y="410" width="42.5" height="20" as="geometry" />
        </mxCell>
        <mxCell id="qWU6R_GNiuNSAZ3JDCt7-10" value="" style="endArrow=none;dashed=1;html=1;dashPattern=1 3;strokeWidth=2;rounded=0;entryX=1;entryY=0.5;entryDx=0;entryDy=0;" edge="1" parent="1" source="qWU6R_GNiuNSAZ3JDCt7-2" target="qWU6R_GNiuNSAZ3JDCt7-9">
          <mxGeometry width="50" height="50" relative="1" as="geometry">
            <mxPoint x="340" y="319" as="sourcePoint" />
            <mxPoint x="340.00000000000006" y="200" as="targetPoint" />
          </mxGeometry>
        </mxCell>
        <mxCell id="qWU6R_GNiuNSAZ3JDCt7-9" value="" style="rounded=0;whiteSpace=wrap;html=1;rotation=90;" vertex="1" parent="1">
          <mxGeometry x="318.75" y="250" width="42.5" height="20" as="geometry" />
        </mxCell>
        <mxCell id="qWU6R_GNiuNSAZ3JDCt7-12" value="" style="endArrow=none;dashed=1;html=1;dashPattern=1 3;strokeWidth=2;rounded=0;entryX=1;entryY=0.5;entryDx=0;entryDy=0;" edge="1" parent="1" source="qWU6R_GNiuNSAZ3JDCt7-45" target="qWU6R_GNiuNSAZ3JDCt7-11">
          <mxGeometry width="50" height="50" relative="1" as="geometry">
            <mxPoint x="120" y="720" as="sourcePoint" />
            <mxPoint x="120" y="281" as="targetPoint" />
          </mxGeometry>
        </mxCell>
        <mxCell id="qWU6R_GNiuNSAZ3JDCt7-34" style="edgeStyle=orthogonalEdgeStyle;rounded=0;orthogonalLoop=1;jettySize=auto;html=1;exitX=1;exitY=0;exitDx=0;exitDy=0;entryX=1;entryY=1;entryDx=0;entryDy=0;" edge="1" parent="1" source="qWU6R_GNiuNSAZ3JDCt7-11" target="qWU6R_GNiuNSAZ3JDCt7-7">
          <mxGeometry relative="1" as="geometry">
            <Array as="points">
              <mxPoint x="210" y="441" />
              <mxPoint x="210" y="441" />
            </Array>
          </mxGeometry>
        </mxCell>
        <mxCell id="qWU6R_GNiuNSAZ3JDCt7-11" value="" style="rounded=0;whiteSpace=wrap;html=1;rotation=90;" vertex="1" parent="1">
          <mxGeometry x="98.75" y="410" width="42.5" height="20" as="geometry" />
        </mxCell>
        <mxCell id="qWU6R_GNiuNSAZ3JDCt7-14" value="3: Solicitar_Dados()" style="text;html=1;align=center;verticalAlign=middle;resizable=0;points=[];autosize=1;strokeColor=none;fillColor=none;" vertex="1" parent="1">
          <mxGeometry x="160" y="375" width="130" height="30" as="geometry" />
        </mxCell>
        <mxCell id="qWU6R_GNiuNSAZ3JDCt7-16" value="" style="endArrow=none;dashed=1;html=1;dashPattern=1 3;strokeWidth=2;rounded=0;entryX=1;entryY=0.5;entryDx=0;entryDy=0;" edge="1" parent="1" source="qWU6R_GNiuNSAZ3JDCt7-24" target="qWU6R_GNiuNSAZ3JDCt7-15">
          <mxGeometry width="50" height="50" relative="1" as="geometry">
            <mxPoint x="340" y="720" as="sourcePoint" />
            <mxPoint x="340" y="361" as="targetPoint" />
          </mxGeometry>
        </mxCell>
        <mxCell id="qWU6R_GNiuNSAZ3JDCt7-35" style="edgeStyle=orthogonalEdgeStyle;rounded=0;orthogonalLoop=1;jettySize=auto;html=1;exitX=0;exitY=0;exitDx=0;exitDy=0;entryX=0;entryY=1;entryDx=0;entryDy=0;" edge="1" parent="1" source="qWU6R_GNiuNSAZ3JDCt7-15" target="qWU6R_GNiuNSAZ3JDCt7-17">
          <mxGeometry relative="1" as="geometry">
            <Array as="points">
              <mxPoint x="410" y="479" />
              <mxPoint x="410" y="479" />
            </Array>
          </mxGeometry>
        </mxCell>
        <mxCell id="qWU6R_GNiuNSAZ3JDCt7-15" value="" style="rounded=0;whiteSpace=wrap;html=1;rotation=90;" vertex="1" parent="1">
          <mxGeometry x="318.75" y="490" width="42.5" height="20" as="geometry" />
        </mxCell>
        <mxCell id="qWU6R_GNiuNSAZ3JDCt7-36" style="edgeStyle=orthogonalEdgeStyle;rounded=0;orthogonalLoop=1;jettySize=auto;html=1;exitX=1;exitY=1;exitDx=0;exitDy=0;entryX=1;entryY=0;entryDx=0;entryDy=0;dashed=1;" edge="1" parent="1" source="qWU6R_GNiuNSAZ3JDCt7-17" target="qWU6R_GNiuNSAZ3JDCt7-15">
          <mxGeometry relative="1" as="geometry">
            <Array as="points">
              <mxPoint x="490" y="521" />
              <mxPoint x="490" y="521" />
            </Array>
          </mxGeometry>
        </mxCell>
        <mxCell id="qWU6R_GNiuNSAZ3JDCt7-17" value="" style="rounded=0;whiteSpace=wrap;html=1;rotation=90;" vertex="1" parent="1">
          <mxGeometry x="558.75" y="490" width="42.5" height="20" as="geometry" />
        </mxCell>
        <mxCell id="qWU6R_GNiuNSAZ3JDCt7-19" value="4: Enviar_Dados()" style="text;html=1;align=center;verticalAlign=middle;resizable=0;points=[];autosize=1;strokeColor=none;fillColor=none;" vertex="1" parent="1">
          <mxGeometry x="170" y="420" width="120" height="30" as="geometry" />
        </mxCell>
        <mxCell id="qWU6R_GNiuNSAZ3JDCt7-23" value="" style="endArrow=none;dashed=1;html=1;dashPattern=1 3;strokeWidth=2;rounded=0;" edge="1" parent="1">
          <mxGeometry width="50" height="50" relative="1" as="geometry">
            <mxPoint x="580" y="720" as="sourcePoint" />
            <mxPoint x="580" y="560" as="targetPoint" />
          </mxGeometry>
        </mxCell>
        <mxCell id="qWU6R_GNiuNSAZ3JDCt7-25" value="" style="endArrow=none;dashed=1;html=1;dashPattern=1 3;strokeWidth=2;rounded=0;entryX=1;entryY=0.5;entryDx=0;entryDy=0;" edge="1" parent="1" target="qWU6R_GNiuNSAZ3JDCt7-24">
          <mxGeometry width="50" height="50" relative="1" as="geometry">
            <mxPoint x="340" y="720" as="sourcePoint" />
            <mxPoint x="340" y="521" as="targetPoint" />
          </mxGeometry>
        </mxCell>
        <mxCell id="qWU6R_GNiuNSAZ3JDCt7-24" value="" style="rounded=0;whiteSpace=wrap;html=1;rotation=90;" vertex="1" parent="1">
          <mxGeometry x="318.75" y="570" width="42.5" height="20" as="geometry" />
        </mxCell>
        <mxCell id="qWU6R_GNiuNSAZ3JDCt7-27" value="5: Enviar_DadosParaPagamento()" style="text;html=1;align=center;verticalAlign=middle;resizable=0;points=[];autosize=1;strokeColor=none;fillColor=none;" vertex="1" parent="1">
          <mxGeometry x="345" y="455" width="210" height="30" as="geometry" />
        </mxCell>
        <mxCell id="qWU6R_GNiuNSAZ3JDCt7-47" style="edgeStyle=orthogonalEdgeStyle;rounded=0;orthogonalLoop=1;jettySize=auto;html=1;exitX=0;exitY=1;exitDx=0;exitDy=0;entryX=0;entryY=0;entryDx=0;entryDy=0;dashed=1;" edge="1" parent="1" source="qWU6R_GNiuNSAZ3JDCt7-37" target="qWU6R_GNiuNSAZ3JDCt7-45">
          <mxGeometry relative="1" as="geometry">
            <Array as="points">
              <mxPoint x="270" y="639" />
              <mxPoint x="270" y="639" />
            </Array>
          </mxGeometry>
        </mxCell>
        <mxCell id="qWU6R_GNiuNSAZ3JDCt7-37" value="" style="rounded=0;whiteSpace=wrap;html=1;rotation=90;" vertex="1" parent="1">
          <mxGeometry x="318.75" y="650" width="42.5" height="20" as="geometry" />
        </mxCell>
        <mxCell id="qWU6R_GNiuNSAZ3JDCt7-43" style="edgeStyle=orthogonalEdgeStyle;rounded=0;orthogonalLoop=1;jettySize=auto;html=1;exitX=0.25;exitY=0;exitDx=0;exitDy=0;entryX=0.75;entryY=0;entryDx=0;entryDy=0;" edge="1" parent="1" source="qWU6R_GNiuNSAZ3JDCt7-24" target="qWU6R_GNiuNSAZ3JDCt7-24">
          <mxGeometry relative="1" as="geometry">
            <Array as="points">
              <mxPoint x="380" y="569" />
              <mxPoint x="380" y="591" />
            </Array>
          </mxGeometry>
        </mxCell>
        <mxCell id="qWU6R_GNiuNSAZ3JDCt7-44" value="6: Registrar_Compra()" style="text;html=1;align=center;verticalAlign=middle;resizable=0;points=[];autosize=1;strokeColor=none;fillColor=none;" vertex="1" parent="1">
          <mxGeometry x="380" y="565" width="140" height="30" as="geometry" />
        </mxCell>
        <mxCell id="qWU6R_GNiuNSAZ3JDCt7-46" value="" style="endArrow=none;dashed=1;html=1;dashPattern=1 3;strokeWidth=2;rounded=0;entryX=1;entryY=0.5;entryDx=0;entryDy=0;" edge="1" parent="1" target="qWU6R_GNiuNSAZ3JDCt7-45">
          <mxGeometry width="50" height="50" relative="1" as="geometry">
            <mxPoint x="120" y="720" as="sourcePoint" />
            <mxPoint x="120" y="441" as="targetPoint" />
          </mxGeometry>
        </mxCell>
        <mxCell id="qWU6R_GNiuNSAZ3JDCt7-45" value="" style="rounded=0;whiteSpace=wrap;html=1;rotation=90;" vertex="1" parent="1">
          <mxGeometry x="98.75" y="650" width="42.5" height="20" as="geometry" />
        </mxCell>
        <mxCell id="qWU6R_GNiuNSAZ3JDCt7-48" value="7: Exibir_Mensagem()" style="text;html=1;align=center;verticalAlign=middle;resizable=0;points=[];autosize=1;strokeColor=none;fillColor=none;" vertex="1" parent="1">
          <mxGeometry x="160" y="615" width="140" height="30" as="geometry" />
        </mxCell>
      </root>
    </mxGraphModel>
  </diagram>
</mxfile>
